<?xml version="1.0" encoding="UTF-8" standalone="no"?>
<svg
   xmlns:dc="http://purl.org/dc/elements/1.1/"
   xmlns:cc="http://creativecommons.org/ns#"
   xmlns:rdf="http://www.w3.org/1999/02/22-rdf-syntax-ns#"
   xmlns:svg="http://www.w3.org/2000/svg"
   xmlns="http://www.w3.org/2000/svg"
   xmlns:sodipodi="http://sodipodi.sourceforge.net/DTD/sodipodi-0.dtd"
   xmlns:inkscape="http://www.inkscape.org/namespaces/inkscape"
   width="722.57312"
   height="503.98926"
   viewBox="0 0 722.5731 503.98926"
   version="1.1"
   id="svg137"
   sodipodi:docname="section-7-social_networking.svg"
   inkscape:version="1.0.1 (3bc2e813f5, 2020-09-07)">
  <metadata
     id="metadata141">
    <rdf:RDF>
      <cc:Work
         rdf:about="">
        <dc:format>image/svg+xml</dc:format>
        <dc:type
           rdf:resource="http://purl.org/dc/dcmitype/StillImage" />
      </cc:Work>
    </rdf:RDF>
  </metadata>
  <sodipodi:namedview
     pagecolor="#ffffff"
     bordercolor="#666666"
     borderopacity="1"
     objecttolerance="10"
     gridtolerance="10"
     guidetolerance="10"
     inkscape:pageopacity="0"
     inkscape:pageshadow="2"
     inkscape:window-width="1920"
     inkscape:window-height="1001"
     id="namedview139"
     showgrid="false"
     inkscape:zoom="1.6468548"
     inkscape:cx="361.32344"
     inkscape:cy="251.99039"
     inkscape:window-x="-9"
     inkscape:window-y="-9"
     inkscape:window-maximized="1"
     inkscape:current-layer="svg137" />
  <defs
     id="defs9">
    <linearGradient
       id="linear-gradient"
       x1="837.32456"
       y1="380.26786"
       x2="837.32456"
       gradientUnits="userSpaceOnUse"
       gradientTransform="scale(0.72030274,1.3883051)"
       y2="123.94134">
      <stop
         offset="0"
         stop-color="gray"
         stop-opacity="0.251"
         id="stop2" />
      <stop
         offset="0.54"
         stop-color="gray"
         stop-opacity="0.122"
         id="stop4" />
      <stop
         offset="1"
         stop-color="gray"
         stop-opacity="0.102"
         id="stop6" />
    </linearGradient>
  </defs>
  <g
     id="undraw_social_networking_nqk4"
     transform="translate(0.13993247,0.00389048)">
    <path
       id="Path_1445"
       data-name="Path 1445"
       d="m 721.134,350.9 c -25.106,34.449 -16.821,83.622 -2.309,122.8 4.861,13.114 10.382,26.985 7.862,41.253 -3.078,17.443 -17.545,30.512 -32.583,37.63 -27.414,12.973 -59.8,10.9 -84.321,-5.444 -21.162,-14.108 -36.059,-37.553 -57.631,-50.988 -36.1,-22.477 -82.974,-12.434 -123.157,4.726 -28.428,12.139 -59.568,27.774 -87.271,16.564 -19.495,-7.888 -32.622,-27.966 -39.528,-49.429 -3.335,-10.363 -5.669,-21.611 -12.312,-29.723 -3.95,-4.822 -9.17,-8.183 -14.538,-10.991 -48.987,-25.651 -112,-9.619 -159.491,-38.239 -32.064,-19.328 -52.02,-56.836 -60.312,-96.268 -8.292,-39.432 -6.24,-81.057 -2.937,-121.97 2.347,-29.075 6.06,-60.145 23.541,-82.994 18.488,-24.163 49.474,-33.77 77.184,-29.98 27.71,3.79 52.546,19.2 74.285,37.54 27.171,22.926 52.187,51.7 86,60.4 23.028,5.925 47.493,1.731 71.432,-0.122 40.016,-3.091 79.89,0.468 119.521,4.489 37.938,3.848 76.138,8.144 112.069,20.758 25.427,8.927 45.582,25.8 69.521,37.329 15.6,7.516 32.769,9.26 47.454,18.969 18.122,11.96 34.5,33.147 29.184,58.574 -5.02,24.153 -28.337,36.831 -41.663,55.116 z"
       transform="translate(-41.381,-57.05)"
       fill="#6c63ff"
       opacity="0.1" />
    <rect
       id="Rectangle_137"
       data-name="Rectangle 137"
       width="131.756"
       height="88.521004"
       rx="9.6099997"
       transform="translate(244.077,101.902)"
       fill="#474059"
       x="0"
       y="0" />
    <rect
       id="Rectangle_138"
       data-name="Rectangle 138"
       width="125.933"
       height="72.316002"
       transform="translate(246.848,112.239)"
       fill="#ffffff"
       x="0"
       y="0" />
    <ellipse
       id="Ellipse_42"
       data-name="Ellipse 42"
       cx="1.109"
       cy="1.199"
       rx="1.109"
       ry="1.199"
       transform="translate(308.705,107.301)"
       fill="#ffffff" />
    <rect
       id="Rectangle_139"
       data-name="Rectangle 139"
       width="23.086"
       height="24.368"
       transform="translate(298.066,187.217)"
       fill="#474059"
       x="0"
       y="0" />
    <path
       id="Path_1446"
       data-name="Path 1446"
       d="M 459.688,326.95 H 487.9 a 3.848,3.848 0 0 1 3.848,3.848 H 455.84 a 3.848,3.848 0 0 1 3.848,-3.848 z"
       transform="translate(-163.545,-117.289)"
       fill="#474059" />
    <rect
       id="Rectangle_140"
       data-name="Rectangle 140"
       width="94.908997"
       height="32.705002"
       transform="translate(149.291,230.182)"
       fill="#c0bccf"
       x="0"
       y="0" />
    <rect
       id="Rectangle_141"
       data-name="Rectangle 141"
       width="20.521"
       height="178.274"
       transform="translate(536.62,214.15)"
       fill="#c0bccf"
       x="0"
       y="0" />
    <rect
       id="Rectangle_142"
       data-name="Rectangle 142"
       width="94.908997"
       height="1.924"
       transform="translate(149.291,230.182)"
       opacity="0.1"
       x="0"
       y="0" />
    <rect
       id="Rectangle_143"
       data-name="Rectangle 143"
       width="20.521"
       height="17.955999"
       transform="translate(536.62,214.15)"
       opacity="0.1"
       x="0"
       y="0" />
    <rect
       id="Rectangle_144"
       data-name="Rectangle 144"
       width="94.908997"
       height="32.705002"
       transform="translate(149.291,261.605)"
       fill="#c0bccf"
       x="0"
       y="0" />
    <circle
       id="Ellipse_43"
       data-name="Ellipse 43"
       cx="5.7709999"
       cy="5.7709999"
       r="5.7709999"
       transform="translate(190.974,271.865)"
       fill="#6c63ff" />
    <circle
       id="Ellipse_44"
       data-name="Ellipse 44"
       cx="5.7709999"
       cy="5.7709999"
       r="5.7709999"
       transform="translate(190.974,240.443)"
       fill="#6c63ff" />
    <rect
       id="Rectangle_145"
       data-name="Rectangle 145"
       width="94.908997"
       height="32.705002"
       transform="translate(149.291,294.31)"
       fill="#c0bccf"
       x="0"
       y="0" />
    <circle
       id="Ellipse_45"
       data-name="Ellipse 45"
       cx="5.7709999"
       cy="5.7709999"
       r="5.7709999"
       transform="translate(190.974,303.929)"
       fill="#6c63ff" />
    <rect
       id="Rectangle_146"
       data-name="Rectangle 146"
       width="94.908997"
       height="32.705002"
       transform="translate(149.291,327.015)"
       fill="#c0bccf"
       x="0"
       y="0" />
    <circle
       id="Ellipse_46"
       data-name="Ellipse 46"
       cx="5.7709999"
       cy="5.7709999"
       r="5.7709999"
       transform="translate(190.974,336.634)"
       fill="#6c63ff" />
    <rect
       id="Rectangle_147"
       data-name="Rectangle 147"
       width="94.908997"
       height="32.705002"
       transform="translate(149.291,359.72)"
       fill="#c0bccf"
       x="0"
       y="0" />
    <circle
       id="Ellipse_47"
       data-name="Ellipse 47"
       cx="5.7709999"
       cy="5.7709999"
       r="5.7709999"
       transform="translate(190.974,369.339)"
       fill="#6c63ff" />
    <rect
       id="Rectangle_148"
       data-name="Rectangle 148"
       width="94.908997"
       height="2.5650001"
       transform="translate(149.291,292.386)"
       opacity="0.1"
       x="0"
       y="0" />
    <rect
       id="Rectangle_149"
       data-name="Rectangle 149"
       width="94.908997"
       height="2.5650001"
       transform="translate(149.291,260.322)"
       opacity="0.1"
       x="0"
       y="0" />
    <rect
       id="Rectangle_150"
       data-name="Rectangle 150"
       width="94.908997"
       height="2.5650001"
       transform="translate(149.291,325.091)"
       opacity="0.1"
       x="0"
       y="0" />
    <rect
       id="Rectangle_151"
       data-name="Rectangle 151"
       width="94.908997"
       height="2.5650001"
       transform="translate(149.291,357.796)"
       opacity="0.1"
       x="0"
       y="0" />
    <path
       id="Path_1447"
       data-name="Path 1447"
       d="m 152.925,530.753 c 0,0 -2.116,-62.691 -36.033,-98.115 A 95.028,95.028 0 0 1 90.83,378.463 159.846,159.846 0 0 1 90.03,349.24"
       transform="translate(-55.725,-161.869)"
       fill="none"
       stroke="#535461"
       stroke-miterlimit="10"
       stroke-width="2" />
    <path
       id="Path_1448"
       data-name="Path 1448"
       d="m 56.708,304.433 c 2.321,7 21.726,23.086 21.726,23.086 0,0 5.945,-24.5 3.623,-31.5 a 13.354,13.354 0 0 0 -25.35,8.407 z"
       transform="translate(-43.643,-139.494)"
       fill="#6c63ff" />
    <path
       id="Path_1449"
       data-name="Path 1449"
       d="m 41.652,372.255 c 5.771,4.617 30.781,7.58 30.781,7.58 0,0 -8.337,-23.8 -14.108,-28.408 a 13.355,13.355 0 1 0 -16.712,20.835 z"
       transform="translate(-36.68,-161.6)"
       fill="#6c63ff" />
    <path
       id="Path_1450"
       data-name="Path 1450"
       d="m 73.791,473.539 c 7.3,1.077 30.4,-8.978 30.4,-8.978 0,0 -19.203,-16.361 -26.491,-17.442 a 13.354009,13.354009 0 1 0 -3.905,26.421 z"
       transform="translate(-45.926,-196.929)"
       fill="#6c63ff" />
    <path
       id="Path_1451"
       data-name="Path 1451"
       d="m 119.535,545.57 c 7.009,2.3 31.487,-3.732 31.487,-3.732 0,0 -16.167,-19.347 -23.176,-21.643 a 13.355,13.355 0 0 0 -8.337,25.375 z"
       transform="translate(-63.12,-222.955)"
       fill="#6c63ff" />
    <path
       id="Path_1452"
       data-name="Path 1452"
       d="m 120.32,374.8 c -3.405,6.541 -25.119,19.354 -25.119,19.354 0,0 -1.975,-25.132 1.43,-31.679 A 13.352,13.352 0 1 1 120.32,374.8 Z"
       transform="translate(-57.492,-164.038)"
       fill="#6c63ff" />
    <path
       id="Path_1453"
       data-name="Path 1453"
       d="m 169.055,457.536 c -5.207,5.226 -29.755,10.947 -29.755,10.947 0,0 5.637,-24.574 10.838,-29.8 a 13.352,13.352 0 1 1 18.918,18.847 z"
       transform="translate(-73.516,-192.545)"
       fill="#6c63ff" />
    <path
       id="Path_1454"
       data-name="Path 1454"
       d="m 208.629,547.3 c -4.245,6.028 -27.479,15.82 -27.479,15.82 0,0 1.4,-25.17 5.65,-31.2 a 13.351,13.351 0 1 1 21.8,15.391 z"
       transform="translate(-88.529,-225.241)"
       fill="#6c63ff" />
    <path
       id="Path_1455"
       data-name="Path 1455"
       d="m 176.67,536.288 c 0,0 19.238,-27.985 15.865,-54.316 a 51.456,51.456 0 0 1 6.079,-31.972 86.572,86.572 0 0 1 9.048,-13"
       transform="translate(-86.922,-193.351)"
       fill="none"
       stroke="#535461"
       stroke-miterlimit="10"
       stroke-width="2" />
    <path
       id="Path_1456"
       data-name="Path 1456"
       d="m 221.684,408.354 c -1.238,3.8 2.033,17.045 2.033,17.045 0,0 10.472,-8.76 11.71,-12.55 a 7.229,7.229 0 0 0 -13.743,-4.489 z"
       transform="translate(-102.969,-181.289)"
       fill="#6c63ff" />
    <path
       id="Path_1457"
       data-name="Path 1457"
       d="m 193.274,433.039 c 1.02,3.848 10.972,13.2 10.972,13.2 0,0 4.027,-13.044 3.008,-16.9 a 7.231,7.231 0 1 0 -13.98,3.7 z"
       transform="translate(-92.791,-188.672)"
       fill="#6c63ff" />
    <path
       id="Path_1458"
       data-name="Path 1458"
       d="m 174.676,487.482 c 2.828,2.815 16.134,5.861 16.134,5.861 0,0 -3.1,-13.294 -5.938,-16.109 a 7.2337335,7.2337335 0 1 0 -10.2,10.26 z"
       transform="translate(-85.441,-207.03)"
       fill="#6c63ff" />
    <path
       id="Path_1459"
       data-name="Path 1459"
       d="m 171.442,533.613 c 2.315,3.251 14.916,8.5 14.916,8.5 0,0 -0.814,-13.627 -3.129,-16.878 a 7.23,7.23 0 0 0 -11.787,8.375 z"
       transform="translate(-84.567,-223.913)"
       fill="#6c63ff" />
    <path
       id="Path_1460"
       data-name="Path 1460"
       d="m 223.04,459.554 c -3.585,1.757 -17.16,0.346 -17.16,0.346 0,0 7.221,-11.581 10.812,-13.313 a 7.229,7.229 0 1 1 6.355,12.986 z"
       transform="translate(-97.4,-196.526)"
       fill="#6c63ff" />
    <path
       id="Path_1461"
       data-name="Path 1461"
       d="m 218.455,512.422 c -3.95,0.6 -16.455,-4.777 -16.455,-4.777 0,0 10.357,-8.888 14.307,-9.491 a 7.2291893,7.2291893 0 1 1 2.174,14.294 z"
       transform="translate(-96.008,-215.259)"
       fill="#6c63ff" />
    <path
       id="Path_1462"
       data-name="Path 1462"
       d="m 206.168,563.65 c -3.79,1.283 -17.058,-1.924 -17.058,-1.924 0,0 8.709,-10.51 12.5,-11.774 a 7.2302353,7.2302353 0 0 1 4.559,13.723 z"
       transform="translate(-91.384,-233.737)"
       fill="#6c63ff" />
    <path
       id="Path_1463"
       data-name="Path 1463"
       d="m 221.684,408.354 c -1.238,3.8 2.033,17.045 2.033,17.045 0,0 10.472,-8.76 11.71,-12.55 a 7.229,7.229 0 0 0 -13.743,-4.489 z"
       transform="translate(-102.969,-181.289)"
       fill="#ffffff"
       opacity="0.5" />
    <path
       id="Path_1464"
       data-name="Path 1464"
       d="m 193.274,433.039 c 1.02,3.848 10.972,13.2 10.972,13.2 0,0 4.027,-13.044 3.008,-16.9 a 7.231,7.231 0 1 0 -13.98,3.7 z"
       transform="translate(-92.791,-188.672)"
       fill="#ffffff"
       opacity="0.5" />
    <path
       id="Path_1465"
       data-name="Path 1465"
       d="m 174.676,487.482 c 2.828,2.815 16.134,5.861 16.134,5.861 0,0 -3.1,-13.294 -5.938,-16.109 a 7.2337335,7.2337335 0 1 0 -10.2,10.26 z"
       transform="translate(-85.441,-207.03)"
       fill="#ffffff"
       opacity="0.5" />
    <path
       id="Path_1466"
       data-name="Path 1466"
       d="m 171.442,533.613 c 2.315,3.251 14.916,8.5 14.916,8.5 0,0 -0.814,-13.627 -3.129,-16.878 a 7.23,7.23 0 0 0 -11.787,8.375 z"
       transform="translate(-84.567,-223.913)"
       fill="#ffffff"
       opacity="0.5" />
    <path
       id="Path_1467"
       data-name="Path 1467"
       d="m 223.04,459.554 c -3.585,1.757 -17.16,0.346 -17.16,0.346 0,0 7.221,-11.581 10.812,-13.313 a 7.229,7.229 0 1 1 6.355,12.986 z"
       transform="translate(-97.4,-196.526)"
       fill="#ffffff"
       opacity="0.5" />
    <path
       id="Path_1468"
       data-name="Path 1468"
       d="m 218.455,512.422 c -3.95,0.6 -16.455,-4.777 -16.455,-4.777 0,0 10.357,-8.888 14.307,-9.491 a 7.2291893,7.2291893 0 1 1 2.174,14.294 z"
       transform="translate(-96.008,-215.259)"
       fill="#ffffff"
       opacity="0.5" />
    <path
       id="Path_1469"
       data-name="Path 1469"
       d="m 206.168,563.65 c -3.79,1.283 -17.058,-1.924 -17.058,-1.924 0,0 8.709,-10.51 12.5,-11.774 a 7.2302353,7.2302353 0 0 1 4.559,13.723 z"
       transform="translate(-91.384,-233.737)"
       fill="#ffffff"
       opacity="0.5" />
    <path
       id="Path_1470"
       data-name="Path 1470"
       d="m 157.238,606.429 h -54.72 L 88.84,522.98 h 82.083 z"
       transform="translate(-31.893,-187.61)"
       fill="#474059" />
    <path
       id="Path_1471"
       data-name="Path 1471"
       d="m 167.594,522.98 -12.781,77.979 H 108.77 l 0.9,5.47 h 54.72 l 13.685,-83.449 z"
       transform="translate(-39.042,-187.61)"
       opacity="0.1" />
    <rect
       id="Rectangle_152"
       data-name="Rectangle 152"
       width="412.33899"
       height="19.238001"
       transform="translate(147.367,211.585)"
       fill="#c0bccf"
       x="0"
       y="0" />
    <rect
       id="Rectangle_153"
       data-name="Rectangle 153"
       width="58.997002"
       height="62.351002"
       transform="translate(249.971,117.241)"
       fill="#e8eaf1"
       x="0"
       y="0" />
    <rect
       id="Rectangle_154"
       data-name="Rectangle 154"
       width="56.431999"
       height="59.639"
       transform="translate(251.253,118.6)"
       fill="#ffffff"
       x="0"
       y="0" />
    <rect
       id="Rectangle_157"
       data-name="Rectangle 157"
       width="46.172001"
       height="1.924"
       transform="translate(321.152,121.166)"
       fill="#e8eaf1"
       x="0"
       y="0" />
    <rect
       id="Rectangle_176"
       data-name="Rectangle 176"
       width="47.453999"
       height="8.9779997"
       transform="translate(256.384,123.089)"
       fill="#e8eaf1"
       x="0"
       y="0" />
    <rect
       id="Rectangle_177"
       data-name="Rectangle 177"
       width="47.453999"
       height="8.9779997"
       transform="translate(256.384,135.915)"
       fill="#e8eaf1"
       x="0"
       y="0" />
    <rect
       id="Rectangle_182"
       data-name="Rectangle 182"
       width="31.422001"
       height="3.848"
       transform="translate(256.384,164.131)"
       fill="#e8eaf1"
       x="0"
       y="0" />
    <rect
       id="Rectangle_183"
       data-name="Rectangle 183"
       width="31.422001"
       height="3.848"
       transform="translate(256.384,171.826)"
       fill="#e8eaf1"
       x="0"
       y="0" />
    <rect
       id="Rectangle_178"
       data-name="Rectangle 178"
       width="14.749"
       height="8.9779997"
       transform="translate(256.384,150.023)"
       fill="#e8eaf1"
       x="0"
       y="0" />
    <rect
       id="Rectangle_179"
       data-name="Rectangle 179"
       width="13.467"
       height="8.9779997"
       transform="translate(274.339,150.023)"
       fill="#e8eaf1"
       x="0"
       y="0" />
    <rect
       id="Rectangle_180"
       data-name="Rectangle 180"
       width="13.467"
       height="8.9779997"
       transform="translate(290.371,150.023)"
       fill="#e8eaf1"
       x="0"
       y="0" />
    <rect
       id="Rectangle_181"
       data-name="Rectangle 181"
       width="13.467"
       height="14.108"
       transform="translate(290.371,162.207)"
       fill="#e8eaf1"
       x="0"
       y="0" />
    <rect
       id="Rectangle_158"
       data-name="Rectangle 158"
       width="46.172001"
       height="1.924"
       transform="translate(321.152,126.296)"
       fill="#e8eaf1"
       x="0"
       y="0" />
    <rect
       id="Rectangle_159"
       data-name="Rectangle 159"
       width="46.172001"
       height="1.924"
       transform="translate(321.152,131.426)"
       fill="#e8eaf1"
       x="0"
       y="0" />
    <rect
       id="Rectangle_160"
       data-name="Rectangle 160"
       width="46.172001"
       height="1.924"
       transform="translate(321.152,136.556)"
       fill="#e8eaf1"
       x="0"
       y="0" />
    <rect
       id="Rectangle_161"
       data-name="Rectangle 161"
       width="46.172001"
       height="1.924"
       transform="translate(321.152,141.686)"
       fill="#e8eaf1"
       x="0"
       y="0" />
    <rect
       id="Rectangle_162"
       data-name="Rectangle 162"
       width="46.172001"
       height="1.924"
       transform="translate(321.152,146.817)"
       fill="#e8eaf1"
       x="0"
       y="0" />
    <rect
       id="Rectangle_163"
       data-name="Rectangle 163"
       width="46.172001"
       height="1.924"
       transform="translate(321.152,151.947)"
       fill="#e8eaf1"
       x="0"
       y="0" />
    <rect
       id="Rectangle_164"
       data-name="Rectangle 164"
       width="46.172001"
       height="1.924"
       transform="translate(321.152,157.077)"
       fill="#e8eaf1"
       x="0"
       y="0" />
    <rect
       id="Rectangle_165"
       data-name="Rectangle 165"
       width="46.172001"
       height="1.924"
       transform="translate(321.152,162.207)"
       fill="#e8eaf1"
       x="0"
       y="0" />
    <rect
       id="Rectangle_166"
       data-name="Rectangle 166"
       width="46.172001"
       height="1.924"
       transform="translate(321.152,167.337)"
       fill="#e8eaf1"
       x="0"
       y="0" />
    <rect
       id="Rectangle_167"
       data-name="Rectangle 167"
       width="46.172001"
       height="1.924"
       transform="translate(321.152,172.468)"
       fill="#e8eaf1"
       x="0"
       y="0" />
    <path
       id="Path_1483"
       data-name="Path 1483"
       d="m 691.688,371.352 a 46.813,46.813 0 0 0 2.732,-28.107 239.83,239.83 0 0 1 -4.572,-34.148 c -0.731,-11 -2.334,-18.122 -4.085,-22.74 v 0 c 0,0 0.673,-14.967 -9.465,-22.772 -10.138,-7.805 -33.8,-20.168 -33.8,-20.168 l 2.366,-9.664 h -0.1 a 9.286,9.286 0 0 0 2.033,-0.93 8.825,8.825 0 0 0 1.828,-1.52 c 4,-3.5 4.059,-9.927 5.957,-15.044 1.462,-3.937 4.2,-7.311 6.163,-11.043 3.572,-6.8 4.406,-15.14 1.084,-22.053 -3.322,-6.913 -11.19,-11.883 -19.046,-10.991 a 34.225,34.225 0 0 0 -7.413,1.994 c -5.688,2 -10.177,-3.662 -15.865,-1.654 -2.854,1.007 -13.505,2.1 -15.814,5.028 a 2.629,2.629 0 0 0 -1.09,1.475 c -0.6,2.847 4.611,8.548 8.478,13.1 a 20.866,20.866 0 0 0 -4.758,13.249 q 0,0.164 0,0.327 v 0.327 a 21,21 0 0 0 6.381,15.025 c -0.327,2.86 -0.814,6.079 -1.513,9.375 h -0.468 c 0,0 -2.706,11.71 -11.492,11.71 -2.347,0 -5.553,-0.141 -8.978,-0.34 a 93.871,93.871 0 0 0 -30.672,3.533 c -3.424,0.955 -7.2,1.039 -10.35,-1.238 -7.541,-5.444 -15.66,-19.309 -16.769,-21.239 0.846,-5.624 0.731,-15.923 -10.947,-17.8 -13.691,-2.193 -12.941,13.672 -5.066,23.766 a 6.284,6.284 0 0 0 -0.385,1.565 c -0.673,8.458 7.439,24.073 9.465,26.023 2.026,1.95 2.078,14.307 16.25,17.584 14.172,3.277 24.368,4.553 25.01,20.822 0.642,16.269 14.2,33.18 7.439,52.052 -4.059,11.325 -3,17.257 -1.507,20.187 -0.122,0.385 -0.237,0.763 -0.366,1.154 -1.539,4.675 -3.45,9.369 -5.566,12.184 -0.487,0.641 -0.962,1.334 -1.417,2.052 -5.5,3.565 -11.248,7.554 -13.467,9.985 -4.733,5.207 -2.706,26.023 0,34.481 2.706,8.458 19.6,59.857 19.6,59.857 h 0.641 l 0.205,1.283 0.68,4.258 a 6.347,6.347 0 0 1 -0.641,-0.4 1.1,1.1 0 0 0 -1.622,0.436 l -3.3,7.375 c 0,0 -13.518,-5.842 -14.211,7.824 v 1.568 c -0.032,7.266 3.969,9.972 7.4,10.947 a 28.286,28.286 0 0 1 8.811,4.091 c 3.251,2.334 8.2,4.72 13.832,3.424 a 13.675,13.675 0 0 1 3.469,-0.321 c 2.43,0.071 6.541,-0.641 6.413,-6.066 a 10.48,10.48 0 0 0 0,-1.283 c 0,0 -2.854,-10.985 -2.976,-16.032 a 3.752,3.752 0 0 1 0.269,-1.5 10.726,10.726 0 0 0 0.6,-4.534 47.591,47.591 0 0 0 -0.251,-4.89 0.757,0.757 0 0 0 -1.378,-0.318 l -0.109,0.147 c -0.436,-1.443 -0.943,-3.129 -1.417,-4.72 l -0.391,-1.283 h 0.911 c 0,0 -5.419,-31.942 -3.392,-34.507 1.327,-1.7 -0.814,-22.034 -2.456,-35.911 16.468,1.045 42.715,-1.866 60.671,-2.764 a 22.983,22.983 0 0 0 9.805,-2.732 c -1.622,13.159 -4.636,39.458 -3.123,41.4 2.026,2.6 -3.38,34.481 -3.38,34.481 h 0.814 l -0.295,0.975 h 0.1 c -0.5,1.687 -1.045,3.5 -1.513,5.047 l -0.109,-0.147 a 0.757,0.757 0 0 0 -1.379,0.327 47.525,47.525 0 0 0 -0.25,4.88 11.622,11.622 0 0 0 0.6,4.534 3.745,3.745 0 0 1 0.269,1.5 c -0.122,5.079 -2.976,16.032 -2.976,16.032 a 10.529,10.529 0 0 0 0,1.283 c -0.135,5.451 3.976,6.143 6.413,6.066 a 13.677,13.677 0 0 1 3.469,0.321 c 5.63,1.283 10.581,-1.1 13.832,-3.424 a 28.287,28.287 0 0 1 8.811,-4.091 c 3.431,-0.975 7.432,-3.681 7.4,-10.947 v -1.565 c -0.712,-13.653 -14.23,-7.811 -14.23,-7.811 l -3.322,-7.4 a 1.1,1.1 0 0 0 -1.622,-0.436 6.321,6.321 0 0 1 -0.641,0.4 l 0.891,-5.56 h 0.641 c 0,0 16.9,-51.4 19.6,-59.857 2.7,-8.457 4.733,-29.281 0,-34.481 -2.238,-2.462 -8.093,-6.515 -13.653,-10.113 a 126.763,126.763 0 0 1 13.653,9.465 z m -29.188,6.522 -2.148,-1.283 a 10.21,10.21 0 0 0 -1.622,-2.11 17.1,17.1 0 0 1 -1.655,-1.86 c -1.321,-4 -6.2,-20.521 0.308,-29.043 4.726,-6.208 5.085,-18.2 4.713,-26.113 3.206,15.718 7.7,37.835 8.131,42.375 0.53,5.67 -5.28,14.59 -7.727,18.034 z"
       transform="translate(-206.787,-98.313)"
       fill="url(#linear-gradient)"
       style="fill:url(#linear-gradient)" />
    <path
       id="Path_1484"
       data-name="Path 1484"
       d="M 733.956,654.862 731.391,671.535 716,668.329 c 0,0 3.206,-10.9 3.848,-13.467 0.642,-2.567 0.641,0 0.641,0 z"
       transform="translate(-280.393,-271.095)"
       fill="#d6e6f9" />
    <path
       id="Path_1485"
       data-name="Path 1485"
       d="m 625.956,668.329 -15.391,3.206 -1.776,-11.543 -0.789,-5.13 h 13.467 c 0,0 0,-2.565 0.641,0 0.231,0.923 0.8,2.937 1.43,5.13 1.135,3.887 2.418,8.337 2.418,8.337 z"
       transform="translate(-241.651,-271.095)"
       fill="#d6e6f9" />
    <path
       id="Path_1486"
       data-name="Path 1486"
       d="m 623.558,659.992 h -14.749 l -0.789,-5.13 h 13.467 c 0,0 0,-2.565 0.641,0 0.231,0.924 0.795,2.938 1.43,5.13 z"
       transform="translate(-241.658,-271.095)"
       opacity="0.1" />
    <path
       id="Path_1487"
       data-name="Path 1487"
       d="m 719.79,659.492 h 14.749 l 0.789,-5.13 h -13.479 c 0,0 0,-2.565 -0.641,0 -0.219,0.924 -0.783,2.938 -1.418,5.13 z"
       transform="translate(-281.753,-270.915)"
       opacity="0.1" />
    <path
       id="Path_1488"
       data-name="Path 1488"
       d="m 756.238,340.5 c 0,0 8.337,0.641 10.26,30.781 a 245.09,245.09 0 0 0 4.367,33.667 47.8,47.8 0 0 1 -2.565,27.677 l -8.215,20.1 c 0,0 -15.385,-12.825 -20.52,-12.186 0,0 8.978,-12.184 8.337,-19.238 C 747.261,414.247 737,363.586 737,363.586 Z"
       transform="translate(-287.926,-158.734)"
       fill="#d6e6f9" />
    <path
       id="Path_1489"
       data-name="Path 1489"
       d="m 601.862,489.5 c 0,0 -19.88,12.184 -24.368,17.314 -4.488,5.13 -2.565,25.651 0,33.988 2.565,8.337 18.6,59 18.6,59 h 16.032 c 0,0 -5.13,-31.422 -3.206,-33.988 1.924,-2.566 -3.848,-48.1 -3.848,-48.1 z"
       transform="translate(-229.741,-212.184)"
       fill="#5f546f" />
    <path
       id="Path_1490"
       data-name="Path 1490"
       d="m 729.26,489.5 c 0,0 19.88,12.184 24.368,17.314 4.488,5.13 2.565,25.651 0,33.988 -2.565,8.337 -18.6,59 -18.6,59 H 719 c 0,0 5.13,-31.422 3.206,-33.988 -1.924,-2.566 3.848,-48.1 3.848,-48.1 z"
       transform="translate(-281.469,-212.184)"
       fill="#5f546f" />
    <path
       id="Path_1491"
       data-name="Path 1491"
       d="m 601.862,489.5 c 0,0 -19.88,12.184 -24.368,17.314 -4.488,5.13 -2.565,25.651 0,33.988 2.565,8.337 18.6,59 18.6,59 h 16.032 c 0,0 -5.13,-31.422 -3.206,-33.988 1.924,-2.566 -3.848,-48.1 -3.848,-48.1 z"
       transform="translate(-229.741,-212.184)"
       opacity="0.1" />
    <path
       id="Path_1492"
       data-name="Path 1492"
       d="m 729.26,489.5 c 0,0 19.88,12.184 24.368,17.314 4.488,5.13 2.565,25.651 0,33.988 -2.565,8.337 -18.6,59 -18.6,59 H 719 c 0,0 5.13,-31.422 3.206,-33.988 -1.924,-2.566 3.848,-48.1 3.848,-48.1 z"
       transform="translate(-281.469,-212.184)"
       opacity="0.1" />
    <path
       id="Path_1493"
       data-name="Path 1493"
       d="m 664.375,233.949 c 0,0 0,25.01 -8.978,37.835 -8.978,12.825 41.042,1.924 41.042,1.924 a 13.32,13.32 0 0 1 -4.81,-6.733 c -2.642,-9.408 -3.642,-25.978 0.321,-33.026 5.771,-10.26 -27.575,0 -27.575,0 z"
       transform="translate(-258.266,-118.876)"
       fill="#ffced8" />
    <circle
       id="Ellipse_49"
       data-name="Ellipse 49"
       cx="21.162001"
       cy="21.162001"
       r="21.162001"
       transform="translate(399.388,89.743)"
       opacity="0.1" />
    <circle
       id="Ellipse_50"
       data-name="Ellipse 50"
       cx="21.162001"
       cy="21.162001"
       r="21.162001"
       transform="translate(399.388,89.102)"
       fill="#ffced8" />
    <path
       id="Path_1494"
       data-name="Path 1494"
       d="m 675.328,543.045 c -22.938,1.013 -61.094,5.284 -66.878,-1.052 -9.331,-10.216 -6.022,-19.411 -1.206,-25.01 1.885,-2.2 3.578,-5.88 4.951,-9.555 0.462,-1.244 0.891,-2.482 1.282,-3.662 1.481,-4.572 6.413,-7.727 11.992,-7.727 h 46.319 c 5.611,0 10.549,3.206 12,7.779 a 20.577,20.577 0 0 0 2.95,6 14.52,14.52 0 0 0 2.366,2.565 c 2.334,1.982 3.848,6.252 4.829,10.953 2.076,9.949 -6.697,19.184 -18.605,19.709 z"
       transform="translate(-239.682,-214.53)"
       fill="#5f546f" />
    <path
       id="Path_1495"
       data-name="Path 1495"
       d="m 675.328,543.045 c -22.938,1.013 -61.094,5.284 -66.878,-1.052 -9.331,-10.216 -6.022,-19.411 -1.206,-25.01 1.885,-2.2 3.578,-5.88 4.951,-9.555 0.462,-1.244 0.891,-2.482 1.282,-3.662 1.481,-4.572 6.413,-7.727 11.992,-7.727 h 46.319 c 5.611,0 10.549,3.206 12,7.779 a 20.577,20.577 0 0 0 2.95,6 14.52,14.52 0 0 0 2.366,2.565 c 2.334,1.982 3.848,6.252 4.829,10.953 2.076,9.949 -6.697,19.184 -18.605,19.709 z"
       transform="translate(-239.682,-214.53)"
       opacity="0.1" />
    <path
       id="Path_1496"
       data-name="Path 1496"
       d="m 608.414,672.415 c -2.007,-0.4 -7.246,-1.558 -9.279,-3.1 a 1.02,1.02 0 0 0 -1.539,0.43 l -3.142,7.317 c 0,0 -12.826,-5.771 -13.467,7.7 -0.372,7.856 3.617,10.69 7.009,11.69 a 26.38,26.38 0 0 1 8.381,4.021 c 3.084,2.3 7.785,4.649 13.12,3.38 a 12.507,12.507 0 0 1 3.29,-0.321 c 2.392,0.077 6.515,-0.641 6.06,-6.6 0,0 -3.848,-15.391 -2.565,-17.956 0.808,-1.616 0.6,-5.771 0.333,-8.632 a 0.712,0.712 0 0 0 -1.283,-0.327 5.643,5.643 0 0 1 -4.944,2.565 8.979,8.979 0 0 1 -1.974,-0.167 z"
       transform="translate(-231.952,-276.617)"
       opacity="0.1" />
    <path
       id="Path_1497"
       data-name="Path 1497"
       d="m 608.414,673.415 c -2.007,-0.4 -7.246,-1.558 -9.279,-3.1 a 1.02,1.02 0 0 0 -1.539,0.43 l -3.142,7.317 c 0,0 -12.826,-5.771 -13.467,7.7 -0.372,7.856 3.617,10.69 7.009,11.69 a 26.381,26.381 0 0 1 8.381,4.021 c 3.084,2.3 7.785,4.649 13.12,3.38 a 12.507,12.507 0 0 1 3.29,-0.321 c 2.392,0.077 6.515,-0.641 6.06,-6.6 0,0 -3.848,-15.391 -2.565,-17.956 0.808,-1.616 0.6,-5.771 0.333,-8.632 a 0.712,0.712 0 0 0 -1.283,-0.327 5.643,5.643 0 0 1 -4.944,2.565 8.979,8.979 0 0 1 -1.975,-0.16 z"
       transform="translate(-231.952,-276.976)"
       fill="#bc8387" />
    <path
       id="Path_1498"
       data-name="Path 1498"
       d="m 722.418,672.415 c 2.007,-0.4 7.246,-1.558 9.279,-3.1 a 1.02,1.02 0 0 1 1.539,0.43 l 3.123,7.317 c 0,0 12.825,-5.771 13.467,7.7 0.372,7.856 -3.617,10.69 -7.009,11.69 a 26.382,26.382 0 0 0 -8.337,4.034 c -3.085,2.3 -7.785,4.649 -13.12,3.38 a 12.5,12.5 0 0 0 -3.29,-0.321 c -2.392,0.077 -6.515,-0.641 -6.06,-6.6 0,0 3.848,-15.391 2.565,-17.956 -0.808,-1.616 -0.6,-5.771 -0.333,-8.632 a 0.712,0.712 0 0 1 1.282,-0.327 5.643,5.643 0 0 0 4.944,2.565 8.978,8.978 0 0 0 1.95,-0.18 z"
       transform="translate(-278.949,-276.617)"
       opacity="0.1" />
    <path
       id="Path_1499"
       data-name="Path 1499"
       d="m 722.418,673.415 c 2.007,-0.4 7.246,-1.558 9.279,-3.1 a 1.02,1.02 0 0 1 1.539,0.43 l 3.123,7.317 c 0,0 12.825,-5.771 13.467,7.7 0.372,7.856 -3.617,10.69 -7.009,11.69 a 26.382,26.382 0 0 0 -8.337,4.034 c -3.085,2.3 -7.785,4.649 -13.12,3.38 a 12.508,12.508 0 0 0 -3.29,-0.321 c -2.392,0.077 -6.515,-0.641 -6.06,-6.6 0,0 3.848,-15.391 2.565,-17.956 -0.808,-1.616 -0.6,-5.771 -0.333,-8.632 a 0.712,0.712 0 0 1 1.282,-0.327 5.643,5.643 0 0 0 4.944,2.565 8.978,8.978 0 0 0 1.95,-0.173 z"
       transform="translate(-278.949,-276.976)"
       fill="#bc8387" />
    <path
       id="Path_1500"
       data-name="Path 1500"
       d="m 537.941,249.549 c 0,0 5.771,-18.6 -9.619,-21.162 -15.39,-2.562 -11.543,19.88 0,28.216 11.543,8.336 9.619,-7.054 9.619,-7.054 z"
       transform="translate(-209.427,-118.443)"
       fill="#ffced8" />
    <path
       id="Path_1501"
       data-name="Path 1501"
       d="m 689.883,478.483 c -17.956,29.5 -78.235,-3.848 -78.235,-3.848 A 6.424,6.424 0 0 1 609.23,471.3 c 0.494,-1.558 0.949,-3.117 1.359,-4.6 a 13.236,13.236 0 0 1 12.787,-9.7 h 49.378 a 13.217,13.217 0 0 1 12.787,9.767 27.962,27.962 0 0 0 3.142,7.529 c 0.636,2.583 1.2,4.187 1.2,4.187 z"
       transform="translate(-242.092,-200.526)"
       opacity="0.1" />
    <path
       id="Path_1502"
       data-name="Path 1502"
       d="m 619.6,263.189 h -3.848 c 0,0 -2.565,11.543 -10.9,11.543 -2.225,0 -5.265,-0.135 -8.535,-0.34 a 85.879,85.879 0 0 0 -29.1,3.482 c -3.251,0.943 -6.823,1.026 -9.818,-1.218 -7.7,-5.771 -16.032,-21.162 -16.032,-21.162 0,0 -14.749,-0.641 -15.391,7.7 -0.642,8.341 7.054,23.727 8.978,25.651 1.924,1.924 1.924,14.108 15.391,17.314 13.467,3.206 23.086,4.489 23.727,20.521 0.641,16.032 13.467,32.7 7.054,51.3 -6.413,18.6 0.641,22.445 0.641,22.445 0,0 60.28,33.346 78.235,3.848 0,0 -7.054,-19.88 0,-29.5 7.054,-9.62 3.848,-33.346 3.848,-33.346 l 23.086,-23.086 c 0,0 0.641,-14.749 -8.978,-22.445 C 668.339,288.2 645.9,276.014 645.9,276.014 l 2.245,-9.529 z"
       transform="translate(-212.214,-128.236)"
       fill="#d6e6f9" />
    <path
       id="Path_1503"
       data-name="Path 1503"
       d="m 666.2,217.482 c -0.487,6.034 -0.3,12.922 4.168,17.019 a 17.826,17.826 0 0 0 8.01,3.719 51.17,51.17 0 0 0 9.241,1.366 c 2.847,0.154 5.88,0 8.272,-1.52 4.9,-3.161 4.784,-10.19 6.746,-15.686 1.385,-3.886 3.989,-7.2 5.848,-10.9 3.386,-6.695 4.181,-14.922 1.026,-21.733 -3.155,-6.811 -10.613,-11.7 -18.065,-10.805 a 31.506,31.506 0 0 0 -7.054,1.969 c -5.4,1.975 -9.651,-3.61 -15.051,-1.635 -2.95,1.077 -14.672,2.264 -15.391,5.771 -0.853,4.168 10.491,14.563 11.716,18.212 1.614,4.7 0.534,9.413 0.534,14.223 z"
       transform="translate(-258.119,-100.741)"
       opacity="0.1" />
    <path
       id="Path_1504"
       data-name="Path 1504"
       d="m 667.2,216.482 c -0.487,6.034 -0.295,12.922 4.168,17.019 a 17.825,17.825 0 0 0 8.01,3.719 51.169,51.169 0 0 0 9.241,1.366 c 2.847,0.154 5.88,0 8.272,-1.52 4.9,-3.161 4.784,-10.19 6.746,-15.686 1.385,-3.886 3.989,-7.2 5.848,-10.9 3.386,-6.695 4.181,-14.922 1.026,-21.733 -3.155,-6.811 -10.613,-11.7 -18.065,-10.805 a 31.507,31.507 0 0 0 -7.054,1.969 c -5.4,1.975 -9.651,-3.61 -15.051,-1.635 -2.95,1.077 -14.672,2.264 -15.391,5.771 -0.853,4.168 10.491,14.563 11.716,18.212 1.614,4.7 0.534,9.413 0.534,14.223 z"
       transform="translate(-258.478,-100.382)"
       fill="#ae767a" />
    <path
       id="Path_1505"
       data-name="Path 1505"
       d="m 659.52,280.49 c 0,0 3.848,1.61 14.749,4.816 a 32.387,32.387 0 0 0 19.238,0"
       transform="translate(-260.132,-137.207)"
       opacity="0.1" />
    <path
       id="Path_1506"
       data-name="Path 1506"
       d="m 614.5,423.4 c 0,0 17.956,1.026 23.727,8.721 5.771,7.695 7.7,10.26 14.749,10.26 7.049,0 29.5,1.283 32.705,2.565"
       transform="translate(-243.982,-188.472)"
       opacity="0.1" />
    <rect
       id="Rectangle_168"
       data-name="Rectangle 168"
       width="10.722"
       height="12.255"
       transform="translate(408.135,429.259)"
       fill="#c0bccf"
       x="0"
       y="0" />
    <rect
       id="Rectangle_169"
       data-name="Rectangle 169"
       width="8.4259996"
       height="62.036999"
       transform="translate(475.533,278.38)"
       fill="#cb919b"
       x="0"
       y="0" />
    <rect
       id="Rectangle_170"
       data-name="Rectangle 170"
       width="18.379"
       height="2.296"
       transform="translate(461.745,339.648)"
       fill="#cb919b"
       x="0"
       y="0" />
    <rect
       id="Rectangle_171"
       data-name="Rectangle 171"
       width="8.4259996"
       height="62.036999"
       transform="translate(343.796,278.38)"
       fill="#cb919b"
       x="0"
       y="0" />
    <rect
       id="Rectangle_172"
       data-name="Rectangle 172"
       width="18.379"
       height="2.296"
       transform="translate(345.328,339.648)"
       fill="#cb919b"
       x="0"
       y="0" />
    <rect
       id="Rectangle_173"
       data-name="Rectangle 173"
       width="17.615999"
       height="75.060997"
       transform="translate(405.832,343.483)"
       fill="#c0bccf"
       x="0"
       y="0" />
    <path
       id="Path_1507"
       data-name="Path 1507"
       d="m 656.489,475.484 c 47.454,1.655 49.019,-16.526 49.019,-16.526 l -3.065,-50.411 c -0.763,-78.511 -45.954,-66.943 -45.954,-66.943 0,0 -45.191,-11.543 -45.954,66.943 l -3.065,50.411 c 0,0 1.53,18.18 49.019,16.526 z"
       transform="translate(-241.461,-158.915)"
       fill="#cb919b" />
    <path
       id="Path_1508"
       data-name="Path 1508"
       d="m 656.489,475.484 c 47.454,1.655 49.019,-16.526 49.019,-16.526 l -3.065,-50.411 c -0.763,-78.511 -45.954,-66.943 -45.954,-66.943 0,0 -45.191,-11.543 -45.954,66.943 l -3.065,50.411 c 0,0 1.53,18.18 49.019,16.526 z"
       transform="translate(-241.461,-158.915)"
       fill="#ffffff"
       opacity="0.1" />
    <path
       id="Path_1509"
       data-name="Path 1509"
       d="m 655.777,474.1 c 45.261,1.578 46.717,-15.756 46.717,-15.756 l -2.918,-48.051 c -0.731,-74.83 -43.8,-63.8 -43.8,-63.8 0,0 -43.068,-11.03 -43.8,63.8 l -2.918,48.051 c 0,0 1.458,17.331 46.719,15.756 z"
       transform="translate(-242.031,-160.678)"
       fill="#cb919b" />
    <rect
       id="Rectangle_174"
       data-name="Rectangle 174"
       width="19.148001"
       height="32.936001"
       rx="9.5740004"
       transform="translate(404.306,292.931)"
       fill="#c0bccf"
       x="0"
       y="0" />
    <path
       id="Path_1510"
       data-name="Path 1510"
       d="m 687.16,705.345 v 2.674 h -17.59 v -2.655 l 1.533,-0.4 h 14.551 z"
       transform="translate(-263.738,-289.475)"
       opacity="0.1" />
    <path
       id="Path_1511"
       data-name="Path 1511"
       d="m 571.508,731.413 c 0,0 -7.663,-6.124 64.358,-25.273 h 14.55 c 0,0 62.018,15.3 62.781,25.273 h -9.19 c 0,0 -33.7,-9.972 -49.019,-9.972 -15.319,0 -61.274,1.533 -75.029,9.959 z"
       transform="translate(-228.476,-289.898)"
       fill="#c0bccf" />
    <path
       id="Path_1512"
       data-name="Path 1512"
       d="m 534.937,419.77 h 3.238 a 8.337,8.337 0 0 1 8.337,8.337 v 3.918 H 526.6 v -3.918 a 8.337,8.337 0 0 1 8.337,-8.337 z"
       transform="translate(-188.929,-150.585)"
       fill="#cb919b" />
    <path
       id="Path_1513"
       data-name="Path 1513"
       d="m 740.337,419.77 h 3.238 a 8.337,8.337 0 0 1 8.337,8.337 v 3.918 H 732 v -3.918 a 8.337,8.337 0 0 1 8.337,-8.337 z"
       transform="translate(-262.611,-150.585)"
       fill="#cb919b" />
    <circle
       id="Ellipse_51"
       data-name="Ellipse 51"
       cx="5.3610001"
       cy="5.3610001"
       r="5.3610001"
       transform="translate(341.5,441.514)"
       fill="#5a5773" />
    <circle
       id="Ellipse_52"
       data-name="Ellipse 52"
       cx="5.3610001"
       cy="5.3610001"
       r="5.3610001"
       transform="translate(408.135,441.514)"
       fill="#5a5773" />
    <circle
       id="Ellipse_53"
       data-name="Ellipse 53"
       cx="5.3610001"
       cy="5.3610001"
       r="5.3610001"
       transform="translate(475.533,441.514)"
       fill="#5a5773" />
    <rect
       id="Rectangle_175"
       data-name="Rectangle 175"
       width="17.615999"
       height="3.0650001"
       transform="translate(405.832,343.483)"
       opacity="0.1"
       x="0"
       y="0" />
    <path
       id="Path_1514"
       data-name="Path 1514"
       d="m 652.84,583.074 h 51.3 l 3.848,-7.657 c 2.3,-13.018 -6.124,-13.787 -6.124,-13.787 h -98.043 c 0,0 -8.426,0.763 -6.124,13.787 l 3.848,7.657 z"
       transform="translate(-237.812,-238.059)"
       fill="#cb919b" />
    <path
       id="Path_1515"
       data-name="Path 1515"
       d="m 652.84,583.074 h 51.3 l 3.848,-7.657 c 2.3,-13.018 -6.124,-13.787 -6.124,-13.787 h -98.043 c 0,0 -8.426,0.763 -6.124,13.787 l 3.848,7.657 z"
       transform="translate(-237.812,-238.059)"
       fill="#ffffff"
       opacity="0.1" />
    <path
       id="Path_1516"
       data-name="Path 1516"
       d="m 652.84,584.785 h 51.3 l 3.848,-6.567 c 2.3,-11.158 -6.124,-11.819 -6.124,-11.819 h -98.043 c 0,0 -8.426,0.641 -6.124,11.819 l 3.848,6.567 z"
       transform="translate(-237.812,-239.77)"
       fill="#cb919b" />
    <path
       id="Path_1517"
       data-name="Path 1517"
       d="m 839.534,357.135 c 0,0 -5.855,-1.982 -8.67,3.206 a 9.414,9.414 0 0 0 0.122,9.061 c 1.853,3.347 5.662,7.7 12.89,7.3 6.131,-0.327 8.163,-5 8.721,-9.356 a 9.619,9.619 0 0 0 -12.761,-10.26 z"
       transform="translate(-321.202,-164.487)"
       fill="#6c63ff" />
    <path
       id="Path_1518"
       data-name="Path 1518"
       d="m 832.243,369.691 a 9.414,9.414 0 0 1 -0.122,-9.061 c 2.815,-5.13 8.67,-3.206 8.67,-3.206 l 0.3,-0.109 a 9.523,9.523 0 0 1 6.881,0.154 9.53,9.53 0 0 0 -8.119,-0.776 l -0.3,0.109 c 0,0 -5.855,-1.982 -8.67,3.206 a 9.414,9.414 0 0 0 0.122,9.061 14.069,14.069 0 0 0 6.612,6.265 14.512,14.512 0 0 1 -5.374,-5.643 z"
       transform="translate(-321.21,-164.339)"
       fill="#ffffff"
       opacity="0.1" />
    <path
       id="Path_1519"
       data-name="Path 1519"
       d="m 840.3,361.34 c 0,0 2.167,1.706 7.445,0"
       transform="translate(-324.983,-166.21)"
       opacity="0.2" />
    <path
       id="Path_1520"
       data-name="Path 1520"
       d="m 839.58,342 c 0,0 3.719,10.081 3.412,12.716 l 2.943,-0.308 c 0,0 -4.963,-8.837 -3.719,-12.4 z"
       transform="translate(-324.724,-159.272)"
       fill="#6c63ff" />
    <path
       id="Path_1521"
       data-name="Path 1521"
       d="m 839.58,342 c 0,0 3.719,10.081 3.412,12.716 l 2.943,-0.308 c 0,0 -4.963,-8.837 -3.719,-12.4 z"
       transform="translate(-324.724,-159.272)"
       opacity="0.2" />
    <path
       id="Path_1522"
       data-name="Path 1522"
       d="m 856.828,342.471 c 0,0 -5.855,-2.995 -8.478,-0.519 -2.623,2.476 -3.02,8.8 -3.02,8.8 0,0 9.549,1.313 11.498,-8.281 z"
       transform="translate(-326.787,-158.903)"
       fill="#6c63ff" />
    <path
       id="Path_1523"
       data-name="Path 1523"
       d="m 856.828,342.471 c 0,0 -5.855,-2.995 -8.478,-0.519 -2.623,2.476 -3.02,8.8 -3.02,8.8 0,0 9.549,1.313 11.498,-8.281 z"
       transform="translate(-326.787,-158.903)"
       fill="#ffffff"
       opacity="0.1" />
    <path
       id="Path_1524"
       data-name="Path 1524"
       d="m 845.33,351.589 c 0,0 1.539,-7.343 11.5,-8.279"
       transform="translate(-326.787,-159.742)"
       fill="none"
       stroke="#6c63ff"
       stroke-miterlimit="10"
       stroke-width="1" />
  </g>
</svg>
